<svg width="80" height="80" viewBox="0 0 80 80" fill="none" xmlns="http://www.w3.org/2000/svg">
<g clip-path="url(#clip0)">
<path d="M69.7516 54.3331C57.0922 66.9925 36.5656 66.9925 23.9062 54.3331L46.8288 15.8467L69.7516 54.3331Z" fill="#F94848"/>
<path d="M69.7531 54.334H80.0002C72.3673 61.9687 54.9034 65.3512 44.9941 63.7737C53.8915 64.2788 62.956 61.131 69.7531 54.334Z" fill="#23B75F"/>
<path d="M75.6583 47.0439L79.9994 54.3336H69.7522L65.4111 47.0439H75.6583Z" fill="#C7F492"/>
<path d="M57.08 15.8467L75.6589 47.0434H65.4117L46.8311 15.8467H57.08Z" fill="#F97D7D"/>
<path d="M69.7517 54.3336C57.0931 66.9922 36.5667 66.9922 23.9062 54.3336L28.2491 47.0439C38.5105 57.3053 55.1492 57.3053 65.4106 47.0439L69.7517 54.3336Z" fill="#A3E261"/>
<path d="M45.8453 54.3331C33.1859 66.9925 12.6594 66.9925 0 54.3331L22.9227 15.8467L45.8453 54.3331Z" fill="#F94848"/>
<path d="M45.8458 54.334H56.093C48.46 61.9687 30.9961 65.3512 21.0869 63.7737C29.9843 64.2788 39.0488 61.131 45.8458 54.334Z" fill="#23B75F"/>
<path d="M51.7521 47.0439L56.0932 54.3336H45.846L41.5049 47.0439H51.7521Z" fill="#C7F492"/>
<path d="M33.1729 15.8477L51.7518 47.0444H41.5046L22.9238 15.8477H33.1729Z" fill="#F97D7D"/>
<path d="M45.8455 54.3336C33.1869 66.9923 12.6605 66.9923 0 54.3336L4.34281 47.0439C14.6042 57.3054 31.243 57.3054 41.5044 47.0439L45.8455 54.3336Z" fill="#A3E261"/>
<path d="M18.6543 36.5441C17.4557 36.5441 16.8734 35.0107 17.7687 34.2138C18.1987 33.8313 18.8462 33.7711 19.3402 34.0658C19.7987 34.3391 20.0505 34.8782 19.9738 35.4055C19.8799 36.0513 19.3059 36.5441 18.6543 36.5441Z" fill="#4D4D4D"/>
<path d="M27.0212 41.5387C25.8428 41.5387 25.249 40.0512 26.1021 39.2383C26.5312 38.8294 27.1984 38.7569 27.7064 39.0605C28.1844 39.3463 28.438 39.918 28.3283 40.4646C28.205 41.0797 27.6515 41.5387 27.0212 41.5387Z" fill="#4D4D4D"/>
<path d="M55.0872 44.8123C54.5425 44.8123 54.0407 44.4647 53.8447 43.9579C53.6352 43.4162 53.8097 42.7832 54.268 42.4265C55.1624 41.73 56.4999 42.4448 56.4172 43.5764C56.3668 44.2625 55.7761 44.8123 55.0872 44.8123Z" fill="#4D4D4D"/>
<path d="M63.285 36.0053C62.0967 36.0053 61.5101 34.4974 62.3798 33.6925C63.2712 32.8675 64.7619 33.6316 64.6079 34.8356C64.5236 35.4959 63.9529 36.0053 63.285 36.0053Z" fill="#4D4D4D"/>
<path d="M50.2288 31.7551C49.6807 31.7551 49.1827 31.4104 48.9844 30.9015C48.7679 30.3452 48.9626 29.6932 49.444 29.3421C50.431 28.6223 51.8229 29.5676 51.5212 30.7496C51.3723 31.3329 50.8323 31.7551 50.2288 31.7551Z" fill="#4D4D4D"/>
<path d="M38.3867 34.7907C37.1934 34.7907 36.6054 33.2694 37.491 32.4697C37.9317 32.0719 38.5976 32.0154 39.0993 32.3316C39.5612 32.6229 39.8012 33.1824 39.6939 33.7182C39.5706 34.3341 39.0164 34.7907 38.3867 34.7907Z" fill="#4D4D4D"/>
<path d="M20.9487 48.4205C20.3923 48.4205 19.8807 48.0588 19.6943 47.5353C19.5042 47.0013 19.6785 46.3909 20.1234 46.0394C21.074 45.2881 22.4932 46.1548 22.2576 47.3463C22.1357 47.9631 21.5762 48.4205 20.9487 48.4205Z" fill="#4D4D4D"/>
</g>
<defs>
<clipPath id="clip0">
<rect width="80" height="80" fill="white"/>
</clipPath>
</defs>
</svg>
