<svg width="42" height="80" viewBox="0 0 42 80" fill="none" xmlns="http://www.w3.org/2000/svg">
<path d="M4.5 0.125H15.5V5.625H4.5V0.125Z" fill="#D0D2D4"/>
<path d="M26.5 5.625H24.9875C24.6685 4.07315 23.8241 2.67875 22.5968 1.67687C21.3695 0.674992 19.8343 0.126903 18.25 0.125H1.75C1.38533 0.125 1.03559 0.269866 0.777727 0.527728C0.519865 0.785591 0.375 1.13533 0.375 1.5C0.375 1.86467 0.519865 2.21441 0.777727 2.47227C1.03559 2.73013 1.38533 2.875 1.75 2.875H18.25C19.1027 2.8761 19.9342 3.14099 20.6304 3.63335C21.3265 4.1257 21.8533 4.8214 22.1385 5.625H4.5C3.77065 5.625 3.07118 5.91473 2.55546 6.43046C2.03973 6.94618 1.75 7.64565 1.75 8.375V22.125H29.25V8.375C29.25 7.64565 28.9603 6.94618 28.4445 6.43046C27.9288 5.91473 27.2293 5.625 26.5 5.625Z" fill="#3397E8"/>
<path d="M30.625 64.75C24.4567 64.75 19.625 55.6905 19.625 44.125C19.625 32.5595 24.4567 23.5 30.625 23.5C36.7933 23.5 41.625 32.5595 41.625 44.125C41.625 55.6905 36.7933 64.75 30.625 64.75ZM30.625 26.25C28.6313 26.25 26.599 28.028 25.049 31.1282C23.3246 34.5767 22.375 39.1922 22.375 44.125C22.375 49.0578 23.3246 53.6733 25.049 57.1218C26.599 60.222 28.6313 62 30.625 62C32.6187 62 34.651 60.222 36.201 57.1218C37.9254 53.6733 38.875 49.0578 38.875 44.125C38.875 39.1922 37.9254 34.5767 36.201 31.1282C34.651 28.028 32.6187 26.25 30.625 26.25Z" fill="#3397E8"/>
<path d="M30.625 27.625C32.1438 27.625 33.375 26.3938 33.375 24.875C33.375 23.3562 32.1438 22.125 30.625 22.125C29.1062 22.125 27.875 23.3562 27.875 24.875C27.875 26.3938 29.1062 27.625 30.625 27.625Z" fill="#D0D2D4"/>
<path d="M27.875 22.125H3.125C1.60622 22.125 0.375 23.3562 0.375 24.875V77.125C0.375 78.6438 1.60622 79.875 3.125 79.875H27.875C29.3938 79.875 30.625 78.6438 30.625 77.125V24.875C30.625 23.3562 29.3938 22.125 27.875 22.125Z" fill="#E9EEF2"/>
<path d="M30.625 34.5V77.125C30.625 77.8543 30.3353 78.5538 29.8195 79.0695C29.3038 79.5853 28.6043 79.875 27.875 79.875H3.125C2.39565 79.875 1.69618 79.5853 1.18046 79.0695C0.664732 78.5538 0.375 77.8543 0.375 77.125V34.5C0.375 34.5 4.5 33.125 8.625 33.125C15.5 33.125 15.5 37.25 22.375 37.25C26.5 37.25 30.625 34.5 30.625 34.5Z" fill="#A3D4F7"/>
<path d="M21 18H1.75C1.38533 18 1.03559 17.8551 0.777727 17.5973C0.519865 17.3394 0.375 16.9897 0.375 16.625C0.375 16.2603 0.519865 15.9106 0.777727 15.6527C1.03559 15.3949 1.38533 15.25 1.75 15.25H21C21.3647 15.25 21.7144 15.3949 21.9723 15.6527C22.2301 15.9106 22.375 16.2603 22.375 16.625C22.375 16.9897 22.2301 17.3394 21.9723 17.5973C21.7144 17.8551 21.3647 18 21 18Z" fill="#D0D2D4"/>
<path d="M29.25 18H26.5C26.1353 18 25.7856 17.8551 25.5277 17.5973C25.2699 17.3394 25.125 16.9897 25.125 16.625C25.125 16.2603 25.2699 15.9106 25.5277 15.6527C25.7856 15.3949 26.1353 15.25 26.5 15.25H29.25C29.6147 15.25 29.9644 15.3949 30.2223 15.6527C30.4801 15.9106 30.625 16.2603 30.625 16.625C30.625 16.9897 30.4801 17.3394 30.2223 17.5973C29.9644 17.8551 29.6147 18 29.25 18Z" fill="#D0D2D4"/>
</svg>
