<svg width="66" height="62" viewBox="0 0 66 62" fill="none" xmlns="http://www.w3.org/2000/svg">
<path d="M62.2878 36.9024C62.2878 38.0951 61.8048 39.1739 61.0238 39.9549C60.2416 40.7358 59.1628 41.2188 57.9713 41.2188H8.02932C5.64636 41.2188 3.71289 39.2867 3.71289 36.9024C3.71289 36.2636 3.85108 35.6585 4.09935 35.1138C4.3154 34.6402 4.6133 34.2135 4.97682 33.8499C5.75902 33.0689 6.83784 32.5859 8.02932 32.5859H57.9715C59.7171 32.5859 61.2212 33.6217 61.9014 35.1138C62.1496 35.6585 62.2878 36.2636 62.2878 36.9024Z" fill="#884D00"/>
<path d="M61.9007 35.1137C61.6847 35.586 61.3855 36.0139 61.0233 36.3763C60.241 37.1572 59.1622 37.6402 57.9708 37.6402H8.0286C6.28437 37.6402 4.78029 36.6045 4.09863 35.1138C4.31468 34.6402 4.61245 34.2135 4.9761 33.8499C5.7583 33.069 6.83712 32.5859 8.0286 32.5859H57.9708C59.7163 32.5858 61.2203 33.6217 61.9007 35.1137Z" fill="#AA6100"/>
<path d="M66 44.7031C66 50.2646 63.4252 54.3971 59.2631 57.1382C55.0997 59.8807 49.349 61.2319 42.9972 61.2319H23.0027C10.2992 61.2319 0 55.8261 0 44.7031C0 44.0831 0.154301 43.4955 0.433383 42.9668C0.669539 42.516 0.995543 42.1095 1.39141 41.7632C2.25019 41.0105 3.43896 40.5449 4.74981 40.5449H61.2503C63.165 40.5449 64.8154 41.5378 65.5667 42.9668C65.8457 43.4956 66 44.0833 66 44.7031Z" fill="#FFA733"/>
<path d="M65.5668 42.9668C64.6705 46.67 62.4245 49.5547 59.2633 51.637C55.0999 54.3795 49.3493 55.7307 42.9974 55.7307H23.0029C11.8262 55.7307 2.51195 51.5472 0.433594 42.9668C0.66975 42.516 0.995754 42.1095 1.39163 41.7632C2.2504 41.0105 3.43917 40.5449 4.75002 40.5449H61.2505C63.1652 40.5449 64.8154 41.5379 65.5668 42.9668Z" fill="#FFB655"/>
<path d="M51.3545 30.7744L40.1885 41.9404C39.9081 42.2195 39.6088 42.4663 39.2922 42.6797C36.9281 44.2803 33.6892 44.0349 31.5947 41.9404L20.4287 30.7744H51.3545Z" fill="#EEBF00"/>
<path d="M51.3545 30.7744L40.1885 41.9404C39.9081 42.2195 39.6088 42.4663 39.2922 42.6797C38.4402 42.3899 37.6405 41.9055 36.9616 41.2252L26.5107 30.7744H51.3545Z" fill="#FFD422"/>
<path d="M64.7471 32.3329C64.7471 32.9179 64.6505 33.5163 64.4412 34.0999C63.6213 36.3876 61.4263 37.2758 59.7156 36.0119L57.6641 34.4971C56.2324 33.4385 54.4064 33.8719 53.3705 35.5169L53.2832 35.6551C52.2889 37.2356 50.5554 37.7052 49.1399 36.7794L44.5458 33.7752C43.4858 33.0829 42.2152 33.158 41.2116 33.9752L37.5299 36.9699C36.4727 37.83 35.1256 37.8662 34.0401 37.0625L29.8404 33.9496C28.767 33.154 27.4361 33.1794 26.3828 34.0167L22.5589 37.0532C21.5324 37.8676 20.2417 37.9145 19.1804 37.178L14.2294 33.7377C13.2552 33.0615 12.0813 33.0427 11.0937 33.6881L6.47553 36.7084C3.40022 37.1042 1.90426 34.8461 1.90426 34.8461C1.16769 33.566 1.09383 32.0485 1.49241 30.7752C1.96601 29.2537 3.11327 28.0811 4.60523 28.0811H61.3969C62.8594 28.0811 64.028 29.2363 64.5085 30.7685C64.6639 31.2595 64.7471 31.7896 64.7471 32.3329Z" fill="#6DC82A"/>
<path d="M64.5081 30.7678C64.488 30.8348 64.4652 30.9005 64.4411 30.9677C63.6213 33.2567 61.4262 34.145 59.7155 32.8811L57.664 31.3649C56.2324 30.3076 54.4063 30.741 53.3704 32.3846L53.2831 32.5241C52.2889 34.1046 50.5553 34.5742 49.1398 33.6484L44.5457 30.6443C43.4857 29.9506 42.2151 30.0271 41.2116 30.8442L37.5299 33.839C36.4726 34.699 35.1255 34.734 34.04 33.9302L29.8403 30.8174C28.7669 30.0218 27.436 30.0486 26.3827 30.8844L22.5587 33.9221C21.5322 34.7353 20.2415 34.7835 19.1802 34.0469L14.2292 30.6066C13.255 29.9291 12.0811 29.9103 11.0935 30.557L6.47532 33.5759C3.4 33.973 1.90404 31.7136 1.90404 31.7136C1.73092 31.4117 1.59415 31.0964 1.49219 30.7743C1.96579 29.2529 3.11305 28.0801 4.60502 28.0801H61.3967C62.859 28.0802 64.0277 29.2355 64.5081 30.7678Z" fill="#7ED63E"/>
<path d="M63.6006 25.3192C63.61 25.766 63.551 26.1966 63.4356 26.6032C62.9164 28.4119 61.2499 29.7349 59.2749 29.7349C51.5197 29.7349 30.8636 29.5605 27.7482 29.6637C27.6785 29.6664 27.6087 29.6691 27.5403 29.6704C23.6063 29.8193 22.71 30.4499 22.71 32.5471V40.2205C22.71 40.6149 22.5503 40.9732 22.2915 41.2321C22.0325 41.4911 21.6755 41.6507 21.2811 41.6507C20.4908 41.6507 19.8508 42.2907 19.8508 43.081V46.4233C19.8508 46.7627 19.8105 47.0916 19.7327 47.4082C19.2913 49.2357 17.6422 50.5921 15.6618 50.5921H15.5559C13.3044 50.5921 11.4823 48.7634 11.489 46.5119L11.5078 40.4621C11.5091 39.9979 11.6983 39.5765 12.0029 39.2733C12.3088 38.9687 12.7288 38.7809 13.1944 38.7809C14.1256 38.7809 14.881 38.0255 14.881 37.0942V32.5471C14.881 30.9934 13.6225 29.7349 12.0688 29.7349H6.80634C4.43821 29.7349 2.4457 27.8659 2.39736 25.4977C2.34902 23.0678 4.3053 21.082 6.72449 21.082H59.1891C61.5585 21.082 63.5537 22.951 63.6006 25.3192Z" fill="#FF3501"/>
<path d="M63.6006 25.3192C63.61 25.766 63.5509 26.1966 63.4356 26.6032C55.2255 26.5952 35.6079 26.4328 32.5784 26.5321C28.4673 26.6675 27.5402 27.2835 27.5402 29.4169V29.6704C23.6062 29.8193 22.71 30.4499 22.71 32.5471V40.2205C22.71 40.6149 22.5502 40.9732 22.2914 41.2321C22.0324 41.4911 21.6755 41.6507 21.281 41.6507C20.4907 41.6507 19.8507 42.2907 19.8507 43.081V46.4233C19.8507 46.7627 19.8105 47.0916 19.7326 47.4082C17.7924 47.0956 16.3125 45.409 16.3192 43.3802L16.338 37.3317C16.3393 36.8661 16.5285 36.4461 16.8331 36.1429C17.139 35.8383 17.559 35.6505 18.0246 35.6505C18.9558 35.6505 19.7112 34.8951 19.7112 33.9639V29.4167C19.7112 27.863 18.4527 26.6045 16.899 26.6045H11.6365C9.26838 26.6045 7.27588 24.7355 7.22754 22.3674C7.21813 21.9206 7.27717 21.4899 7.39395 21.082H59.189C61.5584 21.082 63.5536 22.951 63.6006 25.3192Z" fill="#FF5023"/>
<path d="M38.8483 16.6836L29.275 26.2609C28.3157 27.2203 27.1845 27.9032 25.9796 28.3071C23.009 29.3107 19.5957 28.6278 17.2315 26.2609L7.6543 16.6836H38.8483Z" fill="#EEBF00"/>
<path d="M38.8481 16.6836L29.2747 26.2609C28.3154 27.2203 27.1843 27.9032 25.9794 28.3071C24.7758 27.9032 23.6448 27.2203 22.6867 26.2609L13.1094 16.6836H38.8481Z" fill="#FFD422"/>
<path d="M66 18.0305C66 18.1017 65.9973 18.1714 65.9933 18.2412C65.941 19.1414 65.5545 19.9532 64.9561 20.5517C64.3107 21.1971 63.4198 21.5956 62.435 21.5956H3.56503C1.59663 21.5954 0 19.9988 0 18.0305C0 13.7584 1.98039 10.5422 4.97114 8.12304C7.39832 6.15877 10.4923 4.71901 13.7314 3.66314C22.7935 0.712736 33 0.76765 33 0.76765C33 0.76765 66 0.589244 66 18.0305Z" fill="#FFA733"/>
<path d="M65.9998 18.0305C65.9998 18.1017 65.9971 18.1714 65.9931 18.2412H10.8101C8.84188 18.2412 7.24512 16.6445 7.24512 14.6761C7.24512 10.404 9.2255 7.18783 12.2163 4.76877C12.6966 4.3796 13.2024 4.01209 13.731 3.66314C22.7933 0.712736 32.9998 0.76765 32.9998 0.76765C32.9998 0.76765 65.9998 0.589244 65.9998 18.0305Z" fill="#FFB655"/>
<path d="M50.7375 7.00442C51.3097 7.61002 51.2827 8.56483 50.6772 9.13718C50.0716 9.70939 49.1168 9.68232 48.5446 9.07685C47.9723 8.47138 46.9191 6.37317 47.5247 5.80083C48.1303 5.22848 50.1653 6.39869 50.7375 7.00442Z" fill="#FFF5CC"/>
<path d="M42.74 14.4609C43.0386 15.2387 42.6502 16.1114 41.8724 16.4101C41.0946 16.7087 40.2219 16.3203 39.9232 15.5425C39.6245 14.7647 39.4491 12.4236 40.2268 12.125C41.0046 11.8264 42.4413 13.683 42.74 14.4609Z" fill="#FFF5CC"/>
<path d="M34.5084 8.25533C34.5084 9.08858 33.8329 9.76392 32.9998 9.76392C32.1666 9.76392 31.4912 9.08845 31.4912 8.25533C31.4912 7.42208 32.1667 5.17383 32.9998 5.17383C33.833 5.1737 34.5084 7.42208 34.5084 8.25533Z" fill="#FFF5CC"/>
<path d="M26.2128 15.4052C26.0045 16.2119 25.1816 16.697 24.3749 16.4887C23.5682 16.2803 23.0831 15.4574 23.2914 14.6507C23.4998 13.844 24.716 11.836 25.5228 12.0444C26.3295 12.2527 26.4212 14.5986 26.2128 15.4052Z" fill="#FFF5CC"/>
<path d="M17.9135 8.83405C17.5503 9.58377 16.6481 9.89727 15.8981 9.53401C15.1484 9.17075 14.8349 8.26854 15.1981 7.51856C15.5614 6.76884 17.1494 5.03969 17.8994 5.40308C18.6492 5.76646 18.2768 8.08433 17.9135 8.83405Z" fill="#FFF5CC"/>
</svg>
