<svg width="62" height="62" viewBox="0 0 62 62" fill="none" xmlns="http://www.w3.org/2000/svg">
<path d="M54.5289 29.3047L44.6839 32.9375L34.8389 29.3047L35.8199 22.0391H53.5479L54.5289 29.3047Z" fill="#DEECF1"/>
<path d="M54.5286 29.3047L44.6836 32.9375V22.0391H53.5476L54.5286 29.3047Z" fill="#C6E2E7"/>
<path d="M42.8672 45.6523H46.5V60.1836H42.8672V45.6523Z" fill="#C6E2E7"/>
<path d="M44.6836 45.6523H46.5V60.1836H44.6836V45.6523Z" fill="#A8D3D8"/>
<path d="M35.6016 58.3672H53.7656V62H35.6016V58.3672Z" fill="#DEECF1"/>
<path d="M44.6836 58.3672H53.7656V62H44.6836V58.3672Z" fill="#C6E2E7"/>
<path d="M44.6833 47.4688C37.8898 47.4688 32.8038 41.2565 34.1482 34.6087L34.8383 29.3047H54.5283L55.2549 34.7175C56.5264 41.1478 51.5492 47.4688 44.6833 47.4688Z" fill="#CF5668"/>
<path d="M44.6836 47.4688V29.3047H54.5286L55.2552 34.7175C56.5267 41.1478 51.5495 47.4688 44.6836 47.4688Z" fill="#C83C50"/>
<path d="M13.8047 0V18.4062H24.7031V0H13.8047Z" fill="#5A5A5A"/>
<path d="M19.2539 0H24.7031V18.4062H19.2539V0Z" fill="#444444"/>
<path d="M31.9688 28.3601V62H6.53906V54.7344L10.1719 51.1016V32.9375L6.53906 29.3047V28.3601C6.53906 21.058 11.5886 17.5345 13.8047 14.7734H24.7031C26.9192 17.5345 31.9688 21.058 31.9688 28.3601Z" fill="#B03244"/>
<path d="M31.9688 28.3601V62H19.2539V14.7734H24.7031C26.9192 17.5345 31.9688 21.058 31.9688 28.3601Z" fill="#962A3A"/>
<path d="M24.7031 43.8359V54.7344H6.53906V43.8359L15.6211 40.2031L24.7031 43.8359Z" fill="#C6E2E7"/>
<path d="M24.7031 43.8359V54.7344H19.2539V41.6562L24.7031 43.8359Z" fill="#A8D3D8"/>
<path d="M6.53906 29.3047H24.7031V43.8359H6.53906V29.3047Z" fill="#DEECF1"/>
<path d="M19.2539 29.3047H24.7031V43.8359H19.2539V29.3047Z" fill="#C6E2E7"/>
</svg>
