<svg width="44" height="51" viewBox="0 0 44 51" fill="none" xmlns="http://www.w3.org/2000/svg">
<path d="M43.1672 32.2406C43.1672 43.9692 33.6175 51.0821 21.8699 50.9996C21.3263 50.9952 20.7885 50.976 20.2552 50.9421H20.2538C9.3209 50.229 0.721434 43.0793 0.879086 31.9357C0.961586 26.1635 3.35705 20.954 7.17873 17.187C8.82873 15.562 9.88216 13.4404 10.1975 11.1451C10.2078 11.0773 10.2167 11.017 10.227 10.9639C11.3496 5.10188 16.204 0.692383 22.0218 0.692383H22.0836C27.8735 0.72332 32.6984 5.1225 33.8166 10.9639C33.8225 10.9904 33.8269 11.0184 33.8313 11.0494C34.2114 13.4198 35.3001 15.6164 36.9958 17.3165C40.8084 21.1396 43.1672 26.4141 43.1672 32.2406Z" fill="#A3E261"/>
</svg>
