<svg width="74" height="74" viewBox="0 0 74 74" fill="none" xmlns="http://www.w3.org/2000/svg">
<path d="M53.1875 63.5935V15.416C53.1875 12.9139 52.3758 10.48 50.875 8.47851L49.5812 6.7002H24.42L23.125 8.47851C21.6242 10.48 20.8125 12.9139 20.8125 15.416V63.5935" fill="#F94848"/>
<path d="M46.8848 11.6592C46.8848 9.96758 46.731 8.31298 46.4512 6.70117H24.42L23.125 8.47833C21.6242 10.4798 20.8125 12.9137 20.8125 15.4158V40.3342C35.4391 38.9559 46.8848 26.6465 46.8848 11.6592Z" fill="#F94848"/>
<path d="M20.8125 63.5938H53.1875L51.8335 66.3017C51.2462 67.4764 50.0448 68.2188 48.7313 68.2188H25.2687C23.9552 68.2188 22.7538 67.4764 22.1665 66.3017L20.8125 63.5938Z" fill="#243242"/>
<path d="M53.1906 19.5126C50.0571 20.3601 46.7607 20.8122 43.359 20.8122C34.9762 20.8122 27.2351 18.0672 20.9844 13.4284C21.2873 11.6928 21.9845 10.0417 23.0321 8.60449C29.3279 13.3636 37.1696 16.1872 45.6715 16.1872C48.2464 16.1872 50.7613 15.9282 53.1906 15.4345L53.1871 15.416V19.5126H53.1906Z" fill="#243242"/>
<path d="M24.2812 68.2188V69.375C24.2812 70.6527 25.3161 71.6875 26.5938 71.6875H47.4062C48.6839 71.6875 49.7188 70.6527 49.7188 69.375V68.2188" fill="#CBC3B6"/>
<path d="M48.5625 6.9375H25.4375C24.1598 6.9375 23.125 5.90266 23.125 4.625C23.125 3.34734 24.1598 2.3125 25.4375 2.3125H48.5625C49.8402 2.3125 50.875 3.34734 50.875 4.625C50.875 5.90266 49.8402 6.9375 48.5625 6.9375Z" fill="#CBC3B6"/>
<path d="M40.4676 52.0312H38.1551V54.3438H40.4676V57.8125H33.5312V54.3438H35.8438V52.0312H33.5312C32.2548 52.0312 31.2188 53.0684 31.2188 54.3438V57.8125C31.2188 59.0878 32.2548 60.125 33.5312 60.125H40.4676H40.4688C41.0862 60.125 41.6666 59.8845 42.1025 59.4486C42.5396 59.0115 42.7801 58.4311 42.7801 57.8125V54.3438C42.7801 53.0673 41.7441 52.0312 40.4676 52.0312V52.0312Z" fill="#E7E4DD"/>
<path d="M39.3113 41.625H34.6875C32.7751 41.625 31.2188 43.1813 31.2188 45.0938V47.4062C31.2188 49.3187 32.7751 50.875 34.6875 50.875H39.3113C41.2238 50.875 42.7801 49.3187 42.7801 47.4062V45.0938C42.7801 43.1802 41.2238 41.625 39.3113 41.625ZM40.4676 47.4051C40.4676 48.0433 39.9496 48.5613 39.3113 48.5613H34.6875C34.0493 48.5613 33.5312 48.0433 33.5312 47.4051V45.0926C33.5312 44.4543 34.0493 43.9363 34.6875 43.9363H39.3113C39.9496 43.9363 40.4676 44.4543 40.4676 45.0926V47.4051Z" fill="#E7E4DD"/>
<path d="M40.4676 38.1553H31.2188V40.4678H41.6238C42.2633 40.4678 42.7801 39.9509 42.7801 39.3115V33.5303H40.4676V38.1553Z" fill="#E7E4DD"/>
<path d="M42.1708 25.4375H42.7801V23.125H42.1708C38.6095 23.125 35.0436 23.9667 31.8582 25.5589C31.4662 25.7543 31.2188 26.1555 31.2188 26.5938V28.9062C31.2188 29.3433 31.4662 29.7445 31.8582 29.9399C35.0425 31.5321 38.6083 32.3738 42.1708 32.3738H42.7801V30.0613H42.1708C41.2134 30.0613 40.2595 29.97 39.3113 29.837V25.6618C40.2595 25.5288 41.2134 25.4375 42.1708 25.4375ZM37 29.3768C35.8125 29.0716 34.6447 28.6877 33.5312 28.1778V27.3222C34.6447 26.8123 35.8125 26.4284 37 26.1232V29.3768Z" fill="#E7E4DD"/>
<path d="M45.325 2.3125H25.4375C24.1598 2.3125 23.125 3.34734 23.125 4.625C23.125 5.90266 24.1598 6.9375 25.4375 6.9375H46.4928C46.2303 5.34766 45.8372 3.80291 45.325 2.3125V2.3125Z" fill="#D5CEC2"/>
<path d="M45.6715 16.1872C37.1696 16.1872 29.3279 13.3636 23.0321 8.60449C21.9845 10.0406 21.2873 11.6928 20.9844 13.4284C27.2351 18.0672 34.9762 20.8122 43.359 20.8122C44.0492 20.8122 44.7326 20.781 45.4136 20.744C45.9039 19.2663 46.2831 17.7389 46.5306 16.1652C46.2438 16.1721 45.9594 16.1872 45.6715 16.1872V16.1872Z" fill="#4D5D7A"/>
</svg>
