<svg width="68" height="68" viewBox="0 0 68 68" fill="none" xmlns="http://www.w3.org/2000/svg">
<path d="M57.4992 21.0635V21.0649L57.0507 25.6941L54.0496 56.6406C54.0496 60.5931 45.832 63.7995 35.6947 63.7995C32.597 63.7995 29.6791 63.5004 27.1206 62.9719C21.3013 61.7711 17.3383 59.3863 17.3383 56.6406L14.3372 25.6941L13.9823 22.0331L13.8887 21.0651V21.0635H57.4992Z" fill="#97F2E3"/>
<path d="M57.499 21.0635V21.0649L57.0505 25.6941C52.4048 28.3553 44.5723 30.1043 35.6931 30.1043C26.814 30.1043 18.9815 28.3553 14.3372 25.6941L13.8887 21.0649V21.0635H57.499Z" fill="#76DDCE"/>
<path d="M61.5083 15.6718C61.5083 21.2328 49.9498 25.7411 35.6924 25.7411C31.477 25.7411 27.4973 25.3469 23.9844 24.6491C15.6112 22.9832 9.87793 19.588 9.87793 15.6718L13.3803 8.70312H58.0058L61.5083 15.6718Z" fill="#E6E6E6"/>
<path d="M28.7071 12.2977L23.9843 24.6491C15.6112 22.9832 9.87793 19.588 9.87793 15.6718L13.3803 8.70312H24.7334L28.7071 12.2977Z" fill="#CCCCCC"/>
<path d="M35.6934 17.408C48.0168 17.408 58.0069 13.5111 58.0069 8.70398C58.0069 3.89691 48.0168 0 35.6934 0C23.37 0 13.3799 3.89691 13.3799 8.70398C13.3799 13.5111 23.37 17.408 35.6934 17.408Z" fill="#F2F2F2"/>
<path d="M35.6938 13.8365C30.4243 13.8365 25.4497 13.0812 21.6866 11.7096C18.0636 10.3892 17.0349 9.01008 16.9541 8.70395C17.0347 8.39782 18.0636 7.0187 21.6863 5.69828C25.4494 4.32673 30.4239 3.57129 35.6936 3.57129C40.9631 3.57129 45.9377 4.32659 49.7008 5.69828C53.3238 7.0187 54.3526 8.39782 54.4333 8.70395C54.3527 9.01008 53.3237 10.3892 49.7007 11.7096C45.9377 13.0812 40.9634 13.8365 35.6938 13.8365Z" fill="#CCCCCC"/>
<path d="M27.1206 62.9728C21.3013 61.772 17.3383 59.3872 17.3383 56.6415L14.3373 25.6951L13.9824 22.0342L25.0833 27.2508L27.1206 62.9728Z" fill="#76DDCE"/>
<path d="M6.54747 59.5615C5.99192 63.4347 9.61344 67.1585 14.6355 67.8789C18.7143 68.4638 22.4629 66.8884 24.0244 64.2014" fill="#4CA1E0"/>
<path d="M47.131 65.0759C47.131 65.1771 47.1249 65.2783 47.1099 65.3795C46.9438 66.5334 45.8745 67.3338 44.7206 67.1693L23.1457 64.0746C22.8316 64.2453 22.4781 64.3979 22.0899 64.5307C20.3017 65.1408 17.781 65.3266 15.0579 64.9355C11.0556 64.3631 7.8235 62.7183 6.83869 60.9361C6.58648 60.4815 6.48222 60.0179 6.54717 59.5618C6.87043 57.3129 11.202 56.0744 16.2253 56.7949C19.5405 57.2707 22.3255 58.4804 23.7452 59.8956L45.3201 62.9902C46.3729 63.1398 47.131 64.0429 47.131 65.0759Z" fill="#4CA1E0"/>
<path d="M22.0901 64.531C20.3019 65.1412 17.7811 65.327 15.0581 64.9358C11.0558 64.3634 7.82367 62.7187 6.83887 60.9365C6.84033 60.9244 6.84484 60.9123 6.8479 60.9002C7.31314 59.3415 11.1237 59.103 15.3601 60.3686C18.7961 61.3941 21.4572 63.0948 22.0901 64.531Z" fill="#3C91C6"/>
</svg>
