<svg width="60" height="60" viewBox="0 0 60 60" fill="none" xmlns="http://www.w3.org/2000/svg">
<g clip-path="url(#clip0)">
<path d="M41.3795 1.03452V7.24143H18.6211V1.03452C18.6229 0.463942 19.0849 0.0017578 19.6556 0H40.3451C40.9157 0.0017578 41.3778 0.463824 41.3795 1.03452Z" fill="#ECF0F1"/>
<path d="M47.5858 21.0207V56.8963H35.1721V21.0207C35.1721 20.5552 32.9997 19.0655 33.1032 18.6207L45.5169 16.5518L47.4306 19.6552C47.5345 20.1029 47.5865 20.5611 47.5858 21.0207Z" fill="#BDC3C7"/>
<path d="M35.3277 19.6545C35.2239 20.1023 35.1718 20.5604 35.1725 21.02V54.8267H12.4141V21.0201C12.4134 20.5605 12.4654 20.1023 12.5692 19.6546L13.4485 18.6201H35.1724L35.3277 19.6545Z" fill="#ECF0F1"/>
<path d="M47.4304 19.6552H35.3271C35.4201 19.2311 34.9857 6.6105 35.1719 6.20703H41.3788L47.0167 18.4139C47.1992 18.8115 47.3379 19.2278 47.4304 19.6552Z" fill="#BDC3C7"/>
<path d="M35.1724 51.7233V59.9992H14.483C13.3417 59.9958 12.4173 59.0715 12.4141 57.9302V28.9648C15.4326 28.9631 18.3279 30.1614 20.4623 32.2959C22.5968 34.4303 23.795 37.3257 23.7933 40.3441C23.7916 43.3626 24.9899 46.258 27.1244 48.3924C29.2588 50.5269 32.154 51.7251 35.1724 51.7233Z" fill="#4482C3"/>
<path d="M41.3784 6.20703L35.7406 18.4139C35.558 18.8115 35.4193 19.2276 35.3268 19.6552H12.5684C12.6608 19.2276 12.7996 18.8114 12.9821 18.4139L18.62 6.20703C18.62 6.20703 41.3784 6.20703 41.3784 6.20703Z" fill="#E6E7E8"/>
<path d="M47.5856 56.8961V58.034C47.5549 59.1472 46.6299 60.026 45.5166 59.9995H35.1719V51.7236C39.1821 51.725 43.0653 53.1305 46.1477 55.696L47.5856 56.8961Z" fill="#285680"/>
<path d="M29.9995 13.9651V11.3789H21.7236V13.9651C21.7236 13.9651 22.327 14.9996 25.6025 14.9996C27.1395 15.112 28.674 14.7511 29.9995 13.9651Z" fill="#BDC3C7"/>
<path d="M25.8615 13.4474C28.1468 13.4474 29.9994 12.5211 29.9994 11.3785C29.9994 10.2359 28.1468 9.30957 25.8615 9.30957C23.5762 9.30957 21.7236 10.2359 21.7236 11.3785C21.7236 12.5211 23.5762 13.4474 25.8615 13.4474Z" fill="#4482C3"/>
</g>
<defs>
<clipPath id="clip0">
<rect width="60" height="60" fill="white"/>
</clipPath>
</defs>
</svg>
