<svg id="Layer_1" height="512" viewBox="0 0 512 512" width="512" xmlns="http://www.w3.org/2000/svg" data-name="Layer 1"><path d="m486 26-21.28 45.64-19.81-4.55-4.55-19.81z" fill="#b0b5ca"/><path d="m464.72 71.64-198.36 198.36-24.36-24.36 198.36-198.36 4.55 19.81z" fill="#ccd3df"/><path d="m300.27 303.92-14.71 14.7-92.18-92.18 14.7-14.71z" fill="#fb6771"/><path d="m258.27 318.9-24.07 24.08-65.18-65.18 24.08-24.07z" fill="#edb740"/><path d="m285.56 318.62-27.29.28-65.17-65.17.28-27.29z" fill="#e75163"/><path d="m224.23 379.96-95.74 95.74a20.008 20.008 0 0 1 0-28.29l67.46-67.45a20 20 0 0 1 28.28 0z" fill="#fb6771"/><path d="m178.14 333.86a20 20 0 0 1 0 28.29l-67.46 67.45a20 20 0 1 1 -28.28-28.28l67.45-67.46a20.008 20.008 0 0 1 28.29 0z" fill="#fb6771"/><path d="m234.2 342.98 2.94 24.07-12.91 12.91a20 20 0 0 0 -28.28 0l-67.46 67.45a20.008 20.008 0 0 0 0 28.29l-.57.57a33.226 33.226 0 0 1 -46.98 0l-45.21-45.21a33.226 33.226 0 0 1 0-46.98l.57-.57a20.008 20.008 0 0 0 28.29 0l67.45-67.46a20 20 0 0 0 0-28.28l12.91-12.91 24.07 2.94zm-50.2 5.02a20.005 20.005 0 0 0 -34.15-14.14l-67.45 67.46a20 20 0 1 0 28.28 28.28l67.46-67.45a19.985 19.985 0 0 0 5.86-14.15z" fill="#e75163"/><path d="m169.02 277.8-24.07-2.94-12.91 12.91-95.74 95.74-.57.57a33.226 33.226 0 0 0 0 46.98l19.67 19.669a33.235 33.235 0 0 1 4.33-41.649l.57-.57 95.74-95.74 12.91-12.91 24.07 2.94z" fill="#ff8d98"/><path d="m132.04 287.77a20 20 0 0 1 0 28.28l-67.45 67.46a20.008 20.008 0 0 1 -28.29 0z" fill="#fb6771"/></svg>