<svg width="36" height="60" viewBox="0 0 36 60" fill="none" xmlns="http://www.w3.org/2000/svg">
<path d="M0.413086 4.1377V9.31011C0.413086 9.79631 0.775155 10.2722 1.44757 10.7067V56.8963C1.44757 58.6135 8.85447 59.9997 17.9993 59.9997C27.1441 59.9997 34.551 58.6135 34.551 56.8963V10.7067C35.2234 10.2722 35.5855 9.79631 35.5855 9.31011V4.1377H0.413086Z" fill="#E64C3C"/>
<path d="M17.9993 8.27586C27.7119 8.27586 35.5855 6.42325 35.5855 4.13793C35.5855 1.85261 27.7119 0 17.9993 0C8.2867 0 0.413086 1.85261 0.413086 4.13793C0.413086 6.42325 8.2867 8.27586 17.9993 8.27586Z" fill="#ECF0F1"/>
<path d="M35.5855 4.1377V9.31011C35.5855 9.79631 35.2234 10.2722 34.551 10.7067C32.1096 12.3101 25.6234 13.448 17.9993 13.448C10.3752 13.448 3.88895 12.3101 1.44757 10.7067C0.775155 10.2722 0.413086 9.79631 0.413086 9.31011V4.1377C0.413086 6.4239 8.2855 8.27563 17.9993 8.27563C27.7131 8.27563 35.5855 6.4239 35.5855 4.1377Z" fill="#BDC3C7"/>
<path d="M15.6717 36.4038C15.4711 38.4621 14.1497 40.2411 12.2372 41.0279C11.2657 41.3854 10.2205 41.4956 9.19583 41.3486C7.726 41.1597 6.46831 40.2017 5.89583 38.8348C5.26802 37.4321 5.55906 35.7884 6.63031 34.6865C7.22572 34.1371 7.93602 33.7272 8.70962 33.4865C10.8924 32.7313 13.7786 34.7486 15.6717 36.4038Z" fill="#F0C419"/>
<path d="M28.2307 39.134C27.7279 39.6494 27.1444 40.0792 26.5031 40.4065C23.3893 41.9789 19.8927 40.872 17.5962 38.2961C16.9875 37.6327 16.3453 37.0008 15.672 36.403C13.7789 34.7478 10.8927 32.7306 8.70996 33.4858C12.4755 32.1823 17.0582 28.0444 19.0238 26.1616C19.8824 25.3098 21.0419 24.8304 22.2513 24.8271C23.4069 24.8363 24.5442 25.1162 25.572 25.6444C27.8969 26.8425 29.5768 29.0029 30.1651 31.5513C30.8685 34.2434 30.1377 37.1079 28.2307 39.134Z" fill="#F3D55B"/>
<path d="M25.5718 25.6443C24.544 25.1161 23.4067 24.8362 22.2512 24.8271C21.0417 24.8304 19.8822 25.3098 19.0236 26.1616C17.058 28.0443 12.4753 32.1823 8.70977 33.4857C7.93617 33.7264 7.22587 34.1363 6.63046 34.6857C6.62012 34.4995 6.62012 34.3236 6.62012 34.1374C6.62045 29.6535 9.25395 25.5878 13.3458 23.7541C17.4376 21.9203 22.2249 22.6605 25.5718 25.6443Z" fill="#E57E25"/>
<path d="M28.2298 39.1344C26.5261 42.6165 23.1679 44.9926 19.3172 45.4405C15.4666 45.8883 11.6527 44.3463 9.19531 41.3481C10.22 41.4951 11.2652 41.3849 12.2367 41.0275C14.1492 40.2406 15.4705 38.4616 15.6712 36.4033C16.3444 37.0011 16.9866 37.633 17.5953 38.2964C19.8919 40.8723 23.3884 41.9792 26.5022 40.4068C27.1435 40.0795 27.7271 39.6497 28.2298 39.1344Z" fill="#E57E25"/>
<path d="M7.65392 21.7248C8.79658 21.7248 9.72289 20.7985 9.72289 19.6559C9.72289 18.5132 8.79658 17.5869 7.65392 17.5869C6.51127 17.5869 5.58496 18.5132 5.58496 19.6559C5.58496 20.7985 6.51127 21.7248 7.65392 21.7248Z" fill="#F3D55B"/>
<path d="M28.3444 21.7248C29.487 21.7248 30.4133 20.7985 30.4133 19.6559C30.4133 18.5132 29.487 17.5869 28.3444 17.5869C27.2017 17.5869 26.2754 18.5132 26.2754 19.6559C26.2754 20.7985 27.2017 21.7248 28.3444 21.7248Z" fill="#F3D55B"/>
<path d="M17.9994 51.7239C9.53941 51.7239 7.16527 49.5949 6.9232 49.3518C6.53116 48.9459 6.53677 48.3007 6.93581 47.9016C7.33484 47.5026 7.98005 47.497 8.38596 47.889C8.38596 47.889 10.4673 49.6549 17.9994 49.6549C25.5315 49.6549 27.6139 47.8859 27.6346 47.8673C28.0539 47.4947 28.6923 47.5184 29.0828 47.9211C29.4694 48.3213 29.4648 48.9572 29.0725 49.3518C28.8335 49.5949 26.4594 51.7239 17.9994 51.7239Z" fill="#C03A2B"/>
<path d="M17.9997 56.8955C12.8025 56.8955 11.379 55.8714 11.0614 55.5579C10.6691 55.1523 10.6742 54.5071 11.073 54.1078C11.4717 53.7084 12.117 53.7024 12.5231 54.0942C12.49 54.0466 13.6197 54.8266 17.9997 54.8266C22.4066 54.8266 23.528 54.0466 23.5383 54.0383C23.7299 53.8482 23.9903 53.744 24.2601 53.7492C24.5299 53.7545 24.786 53.8688 24.97 54.0662C25.3652 54.4901 25.351 55.1515 24.938 55.5579C24.6204 55.8714 23.1969 56.8955 17.9997 56.8955Z" fill="#C03A2B"/>
</svg>
