<svg width="61" height="69" viewBox="0 0 61 69" fill="none" xmlns="http://www.w3.org/2000/svg">
<path d="M48.4234 36.3104C48.0703 36.1254 47.6437 36.1527 47.3167 36.38L41.9394 40.1204C41.652 40.3204 41.4805 40.649 41.4805 40.9993V57.0538C41.4805 59.1268 43.1669 60.8127 45.2393 60.8127C47.3117 60.8127 48.9982 59.1268 48.9982 57.0538V37.2588C48.9982 36.8606 48.7765 36.4947 48.4234 36.3104Z" fill="#FFEBA1"/>
<path d="M36.48 44.6189C36.1264 44.434 35.7003 44.4613 35.3728 44.6886L29.996 48.429C29.7081 48.629 29.5371 48.9576 29.5371 49.3079V54.7843C29.5371 56.8567 31.223 58.5432 33.296 58.5432C35.3684 58.5432 37.0548 56.8567 37.0548 54.7843V45.5674C37.0548 45.1687 36.8331 44.8033 36.48 44.6189Z" fill="#FFEBA1"/>
<path d="M48.4236 36.3104C48.0705 36.1254 47.6438 36.1527 47.3169 36.38L45.2395 37.8252V57.0538C45.2395 58.4423 44.4826 59.6564 43.3604 60.3069C43.9134 60.6283 44.555 60.8127 45.2395 60.8127C47.3119 60.8127 48.9983 59.1268 48.9983 57.0538V37.2588C48.9983 36.8606 48.7767 36.4947 48.4236 36.3104Z" fill="#F7D36F"/>
<path d="M36.4798 44.6189C36.1261 44.434 35.7001 44.4613 35.3726 44.6886L33.2957 46.1338V54.7843C33.2957 56.1728 32.5383 57.3864 31.416 58.0375C31.9696 58.3583 32.6112 58.5432 33.2957 58.5432C35.3681 58.5432 37.0545 56.8573 37.0545 54.7843V45.5674C37.0545 45.1687 36.8329 44.8033 36.4798 44.6189Z" fill="#F7D36F"/>
<path d="M53.9823 33.0468C53.8414 32.8446 53.7356 32.6252 53.6688 32.3963C53.6604 32.3695 52.8473 29.6578 50.0364 25.7998C47.3764 22.1496 42.4073 16.8535 33.8409 12.3545C25.2739 7.85551 18.0938 6.77058 13.5786 6.65307C8.80949 6.5272 6.11331 7.3977 6.08658 7.40661C5.86213 7.48013 5.62542 7.51745 5.38204 7.51745C5.37703 7.51745 5.37146 7.51745 5.36756 7.51745C5.08519 7.51745 4.81395 7.62884 4.61401 7.82767C4.41184 8.02761 4.29822 8.2994 4.29711 8.58344L4.05372 67.0283C4.05205 67.4277 4.2726 67.7947 4.62626 67.9807C4.78276 68.0626 4.95375 68.1032 5.12362 68.1032C5.3386 68.1032 5.55246 68.0386 5.73514 67.9116L53.7144 34.5366C54.1995 34.1991 54.3198 33.5319 53.9823 33.0468Z" fill="#FFDB57"/>
<path d="M4.62626 67.9808C4.78276 68.0632 4.95319 68.1033 5.12362 68.1033C5.3386 68.1033 5.55247 68.0387 5.73514 67.9118L53.7145 34.5367C54.1996 34.1992 54.3193 33.532 53.9818 33.0469C53.8415 32.8447 53.7357 32.6253 53.6683 32.3964C53.6632 32.3785 53.2862 31.1248 52.1695 29.1182L4.07266 62.4654L4.05372 67.029C4.05205 67.4278 4.2726 67.7953 4.62626 67.9808Z" fill="#F6C134"/>
<path d="M22.4902 22.7959C18.7888 22.7959 15.7773 25.8073 15.7773 29.5082C15.7773 33.2097 18.7888 36.2205 22.4902 36.2205C26.1917 36.2205 29.2025 33.2097 29.2025 29.5082C29.2025 25.8068 26.1917 22.7959 22.4902 22.7959Z" fill="#F2433B"/>
<path d="M22.4902 31.5046C19.6186 31.5046 17.163 29.6912 16.2062 27.1504C15.9299 27.8844 15.7773 28.6787 15.7773 29.5085C15.7773 33.21 18.7888 36.2208 22.4897 36.2208C26.1911 36.2208 29.2025 33.21 29.2025 29.5085C29.2025 28.6792 29.0499 27.8844 28.7737 27.1504C27.8169 29.6912 25.3618 31.5046 22.4902 31.5046Z" fill="#D83636"/>
<path d="M9.92651 33.7573C8.69677 32.4992 7.05155 31.7818 5.29382 31.7384C5.00699 31.7345 4.72796 31.8403 4.52134 32.0403C4.31526 32.2408 4.19831 32.5159 4.19719 32.8038L4.15041 44.082C4.14874 44.37 4.26347 44.6456 4.46843 44.8478C4.66893 45.0461 4.93905 45.1569 5.2203 45.1569H5.23813C8.87722 45.0962 11.8374 42.0859 11.8374 38.4468C11.8374 36.6835 11.1585 35.0177 9.92651 33.7573Z" fill="#F2433B"/>
<path d="M5.2377 40.373C5.23157 40.3735 5.226 40.3735 5.21987 40.3735C4.93862 40.3735 4.6685 40.2627 4.46744 40.0644C4.31205 39.9107 4.20846 39.7141 4.16836 39.5024L4.14942 44.0817C4.14831 44.3696 4.26304 44.6453 4.46744 44.8475C4.66794 45.0457 4.93806 45.1566 5.21987 45.1566H5.2377C8.87623 45.0959 11.8364 42.0856 11.8364 38.4465C11.8364 37.6127 11.6832 36.8018 11.3931 36.0449C10.4379 38.53 8.0397 40.3267 5.2377 40.373Z" fill="#D83636"/>
<path d="M38.1088 33.6641C34.4073 33.6641 31.3965 36.6755 31.3965 40.3764C31.3965 43.101 33.0233 45.5354 35.5407 46.5791C35.6727 46.6337 35.812 46.6604 35.9506 46.6604C36.1662 46.6604 36.3795 46.5958 36.5616 46.4689L44.3572 41.0464C44.6557 40.8381 44.8289 40.4928 44.8156 40.1286C44.6836 36.5034 41.7373 33.6641 38.1088 33.6641Z" fill="#F2433B"/>
<path d="M46.9106 22.0582C44.8154 19.8455 42.3916 17.7753 39.7054 15.9056C39.4481 15.7269 39.1267 15.67 38.8243 15.748C35.8692 16.5166 33.8057 19.1883 33.8057 22.2442C33.8057 25.9457 36.8171 28.9571 40.518 28.9571C43.9928 28.9571 46.865 26.3517 47.1986 22.897C47.2281 22.5884 47.1234 22.2827 46.9106 22.0582Z" fill="#F2433B"/>
<path d="M46.0323 21.1597C44.8182 22.9074 42.7981 24.0285 40.518 24.0285C37.6854 24.0285 35.2587 22.2641 34.2746 19.7773C33.9711 20.5459 33.8057 21.3797 33.8057 22.2441C33.8057 25.9455 36.8171 28.9564 40.518 28.9564C43.9928 28.9564 46.865 26.3515 47.1986 22.8962C47.2281 22.5882 47.1234 22.2825 46.9106 22.0575C46.6244 21.7556 46.3309 21.4565 46.0323 21.1597Z" fill="#D83636"/>
<path d="M24.1732 8.93609C24.074 8.57073 23.79 8.28557 23.4252 8.18421C20.0506 7.25076 16.7385 6.73559 13.5795 6.65316C13.3522 6.64703 13.1311 6.64425 12.9139 6.64258C12.9111 6.64258 12.9083 6.64258 12.9056 6.64258C12.5369 6.64258 12.1932 6.8325 11.9977 7.14606C11.3333 8.21038 10.9824 9.4379 10.9824 10.6949C10.9824 14.3964 13.9938 17.4073 17.6947 17.4073C21.3962 17.4073 24.4076 14.3964 24.4076 10.6949C24.4076 10.1018 24.3285 9.5103 24.1732 8.93609Z" fill="#F2433B"/>
<path d="M23.863 8.42945C22.8343 10.8188 20.4572 12.4963 17.6948 12.4963C14.8593 12.4963 12.4305 10.728 11.4486 8.2373C11.1423 9.01592 10.9824 9.848 10.9824 10.6946C10.9824 14.396 13.9938 17.4074 17.6948 17.4074C21.3962 17.4074 24.4071 14.396 24.4071 10.6946C24.4071 10.102 24.3286 9.50993 24.1726 8.93572C24.1192 8.73744 24.0094 8.56368 23.863 8.42945Z" fill="#D83636"/>
<path d="M26.9773 52.111C25.9347 49.5908 23.4997 47.9629 20.7734 47.9629C17.072 47.9629 14.0605 50.9737 14.0605 54.6752C14.0605 56.5371 14.8453 58.3321 16.2126 59.5992C16.417 59.788 16.6776 59.8843 16.9405 59.8843C17.1533 59.8843 17.3666 59.8214 17.5515 59.6927L26.5997 53.3987C27.0124 53.1119 27.1694 52.5761 26.9773 52.111Z" fill="#F2433B"/>
<path d="M60.0511 30.5212C59.8823 29.9459 55.7008 16.3274 36.9473 6.47281C36.94 6.46891 36.9333 6.46501 36.9261 6.46167C18.1653 -3.38738 4.57805 0.901108 4.00885 1.08824C1.70643 1.84569 0.449402 4.3358 1.20685 6.63822C1.57388 7.75378 2.35305 8.65938 3.40122 9.18848C4.4494 9.71813 5.64126 9.80725 6.74402 9.44412C6.76852 9.43632 9.25585 8.68221 13.5237 8.79305C17.8117 8.90499 24.6443 9.94258 32.8465 14.25C41.0486 18.5574 45.781 23.5939 48.3067 27.0604C50.8208 30.5106 51.6111 32.9874 51.615 32.9991C51.9464 34.1258 52.696 35.0559 53.727 35.6184C54.3825 35.9765 55.1009 36.1581 55.8272 36.1581C56.2432 36.1581 56.6621 36.0985 57.0725 35.9776C58.1992 35.6468 59.1293 34.8966 59.6924 33.8657C60.2544 32.8353 60.3819 31.6474 60.0511 30.5212Z" fill="#FF9F34"/>
<path d="M57.4885 32.6932C57.484 32.6787 56.5417 29.7274 53.5464 25.616C50.5361 21.4852 44.8965 15.4835 35.1226 10.3501C25.3482 5.2173 17.2062 3.98088 12.0968 3.84722C7.01018 3.71522 4.04667 4.61413 4.01715 4.6236C3.03971 4.94496 2.00379 4.96835 1.02356 4.69934C0.940576 5.33204 0.994043 5.99257 1.2068 6.63808C1.57382 7.75364 2.35299 8.65924 3.40117 9.18834C4.44934 9.71799 5.64121 9.8071 6.74396 9.44397C6.76847 9.43618 9.25579 8.68207 13.5237 8.7929C17.8116 8.90485 24.6442 9.94244 32.8464 14.2499C41.0485 18.5573 45.7809 23.5938 48.3067 27.0602C50.8207 30.5105 51.611 32.9872 51.6149 32.9989C51.9463 34.1256 52.696 35.0557 53.7269 35.6182C54.3824 35.9764 55.1009 36.1579 55.8271 36.1579C56.2432 36.1579 56.662 36.0983 57.0724 35.9775C57.7475 35.7792 58.3518 35.4294 58.8491 34.9594C58.2147 34.3406 57.7452 33.567 57.4885 32.6932Z" fill="#FB8F2D"/>
<path d="M35.5412 46.58C35.6732 46.6346 35.8124 46.6613 35.9511 46.6613C36.1666 46.6613 36.3799 46.5967 36.562 46.4697L44.3576 41.0473C44.6561 40.839 44.8293 40.4936 44.816 40.1294C44.7508 38.3461 44.0039 36.7537 42.8305 35.5947L31.9795 43.1185C32.6645 44.6541 33.9171 45.9066 35.5412 46.58Z" fill="#D83636"/>
<path d="M16.2138 59.5989C16.4177 59.7877 16.6789 59.884 16.9412 59.884C17.1539 59.884 17.3678 59.8211 17.5522 59.6925L26.6003 53.3984C27.013 53.1116 27.1701 52.5752 26.9779 52.1107C26.3608 50.6187 25.2553 49.4396 23.8902 48.7256L14.1152 55.5031C14.3107 57.0609 15.0503 58.5212 16.2138 59.5989Z" fill="#D83636"/>
</svg>
