<svg width="58" height="66" viewBox="0 0 58 66" fill="none" xmlns="http://www.w3.org/2000/svg">
<path d="M44.4333 0.0345284C33.5391 5.55868 30.5776 19.0675 29.7568 26.1139H33.769C35.1586 11.1972 41.6848 3.41484 44.7695 0.518056C45.0193 0.283446 44.7389 -0.120546 44.4333 0.0345284V0.0345284Z" fill="#04A550"/>
<path d="M37.6772 10.7637C38.0924 9.85148 38.522 8.99928 38.958 8.20496C39.266 7.64344 39.1406 6.94413 38.6544 6.52711L38.6349 6.51036C38.0163 5.97978 37.1218 6.0878 36.6369 6.74277C36.012 7.58698 35.4414 8.46329 34.9206 9.36009C34.4144 10.2316 34.8803 11.3459 35.854 11.6059C35.8646 11.6087 35.8752 11.6116 35.8859 11.6144C36.6106 11.8083 37.3664 11.4466 37.6772 10.7637V10.7637Z" fill="#0CC166"/>
<path d="M47.4979 7.73077C39.8721 11.5976 36.1346 19.3767 34.2959 26.1138H38.1124C40.5651 16.1324 45.3317 10.5645 47.8341 8.21442C48.084 7.97981 47.8036 7.57582 47.4979 7.73077V7.73077Z" fill="#0CC166"/>
<path d="M51.7839 13.8648C43.536 14.851 37.4674 20.5652 33.4248 26.114H37.9274C43.3069 18.8629 49.0078 15.6842 51.9336 14.4344C52.249 14.2997 52.1242 13.824 51.7839 13.8648V13.8648Z" fill="#04A550"/>
<path d="M46.0877 15.3827C44.5492 16.0287 43.1088 16.8357 41.7652 17.7568C41.1375 18.1871 40.9788 19.0461 41.4044 19.677C41.4099 19.6852 41.4156 19.6936 41.4211 19.7018C41.8911 20.3987 42.8699 20.5234 43.4959 19.9624C44.7369 18.8502 45.9354 17.926 47.0507 17.1602C47.4946 16.8555 47.62 16.2567 47.336 15.7992L47.3263 15.7836C47.0667 15.3656 46.5414 15.1923 46.0877 15.3827V15.3827Z" fill="#0CC166"/>
<path d="M50.0145 5.3201C38.479 7.80335 32.2076 19.3755 29.4629 26.1142H33.7235C38.8875 13.2749 46.6514 7.80605 50.2167 5.87323C50.5179 5.70991 50.3496 5.24791 50.0145 5.3201V5.3201Z" fill="#29E088"/>
<path d="M44.2134 7.50437C42.079 8.6827 40.1856 10.1801 38.5142 11.8464C37.9401 12.4189 37.9224 13.3423 38.4641 13.9454C38.4714 13.9535 38.4786 13.9617 38.4858 13.9698C39.1096 14.6646 40.2076 14.6389 40.7995 13.9167C42.3771 11.9913 43.945 10.4487 45.3893 9.22359C45.7835 8.8892 45.8693 8.3157 45.5927 7.87897L45.5826 7.86298C45.2911 7.40266 44.6904 7.24101 44.2134 7.50437V7.50437Z" fill="#79FF79"/>
<path d="M56.8258 22.7374L56.8261 22.7371C56.8261 22.7371 56.4721 21.8941 56.576 20.8832C56.6149 20.5043 56.2433 20.213 55.8847 20.3413C54.9279 20.6836 54.0247 20.5412 54.0247 20.5412L54.0244 20.5415C50.7889 19.8247 47.2821 20.9536 45.1018 23.7352C42.5095 27.0425 42.6317 31.6099 45.1427 34.7575C48.7989 36.4438 53.2633 35.4718 55.8557 32.1645C58.036 29.383 58.2944 25.7081 56.8258 22.7374V22.7374Z" fill="#29E088"/>
<path d="M49.9015 25.0121C50.2924 24.9647 50.6475 25.2431 50.6948 25.6339L50.9299 27.5737L49.6862 29.1604L49.2797 25.8054C49.2323 25.4145 49.5108 25.0594 49.9015 25.0121Z" fill="#0CC166"/>
<path d="M55.8557 32.1629C53.2617 35.4724 48.7966 36.4442 45.143 34.758C44.47 33.9162 43.9715 32.9726 43.6475 31.9803C47.7134 34.092 52.8358 33.0787 55.7644 29.3425C56.7259 28.1158 57.3474 26.7288 57.6366 25.2969C58.0105 27.6459 57.4404 30.1412 55.8557 32.1629V32.1629Z" fill="#0CC166"/>
<path d="M55.3079 25.464C55.2606 25.0732 54.9055 24.7947 54.5147 24.8422L52.5747 25.0772L51.3311 26.6639L54.6861 26.2573C55.0769 26.21 55.3552 25.8549 55.3079 25.464Z" fill="#0CC166"/>
<path d="M44.8347 35.1507C44.5248 34.9079 44.4705 34.4599 44.7134 34.15L53.6832 22.7067C53.926 22.3968 54.374 22.3426 54.6839 22.5854C54.9937 22.8283 55.048 23.2762 54.8052 23.5861L45.8354 35.0294C45.5925 35.3393 45.1446 35.3936 44.8347 35.1507Z" fill="#04A550"/>
<path d="M50.2738 31.8859C50.2264 31.4951 49.8713 31.2166 49.4805 31.2641L47.5406 31.4991L46.2969 33.0858L49.6519 32.6792C50.0428 32.6319 50.3211 32.2767 50.2738 31.8859Z" fill="#04A550"/>
<path d="M52.7904 28.675C52.7431 28.2841 52.3879 28.0057 51.9971 28.0531L50.0572 28.2881L48.8135 29.8748L52.1685 29.4683C52.5594 29.4208 52.8377 29.0657 52.7904 28.675Z" fill="#04A550"/>
<path d="M47.3849 28.224C47.7758 28.1766 48.1309 28.455 48.1782 28.8459L48.4133 30.7856L47.1696 32.3724L46.7631 29.0173C46.7157 28.6265 46.9942 28.2713 47.3849 28.224Z" fill="#04A550"/>
<path d="M44.98 31.272C44.9898 31.2702 44.9996 31.2682 45.0094 31.2664C45.7401 31.1283 46.2674 30.4652 46.2037 29.7241C46.0792 28.2758 46.4924 26.7912 47.4474 25.5728C48.5183 24.2065 50.1419 23.4009 51.8392 23.3234C52.5628 23.2904 53.1711 22.7661 53.2643 22.0477C53.2661 22.0341 53.2679 22.0204 53.2695 22.0067C53.3853 21.1134 52.6853 20.3066 51.7851 20.3378C50.8952 20.3686 50.0123 20.5323 49.1688 20.826C47.6126 21.367 46.1921 22.3436 45.1019 23.7343C43.6552 25.58 43.0543 27.8168 43.2412 29.9805C43.3153 30.8378 44.1345 31.4318 44.98 31.272V31.272Z" fill="#79FF79"/>
<path d="M43.4303 17.2287V17.2284C43.4303 17.2284 42.5837 16.8825 41.9425 16.0942C41.7023 15.7988 41.2333 15.8556 41.0705 16.1999C40.6361 17.1185 39.8967 17.6564 39.8967 17.6564V17.6568C37.102 19.4379 35.4205 22.7158 35.8457 26.2245C36.3511 30.3961 39.6672 33.5392 43.6685 33.9895C47.4463 32.5967 49.9156 28.7524 49.4102 24.5808C48.9851 21.0721 46.5694 18.2908 43.4303 17.2287V17.2287Z" fill="#79FF79"/>
<path d="M49.4092 24.5793C49.915 28.7536 47.4449 32.598 43.6692 33.9892C42.5981 33.8698 41.5783 33.5551 40.6475 33.0826C45.0157 31.7007 47.9213 27.3621 47.3502 22.6494C47.1628 21.1021 46.6214 19.6818 45.8135 18.4648C47.7389 19.8615 49.1002 22.0291 49.4092 24.5793V24.5793Z" fill="#29E088"/>
<path d="M44.2842 20.23C43.9743 19.987 43.5264 20.0414 43.2837 20.3513L42.0781 21.8892L42.3206 23.8906L44.4055 21.2307C44.6484 20.9208 44.5941 20.4729 44.2842 20.23Z" fill="#29E088"/>
<path d="M40.142 23.7331C40.3849 23.4232 40.8328 23.3689 41.1426 23.6118L42.6806 24.8172L42.9231 26.8186L40.2632 24.7338C39.9536 24.4908 39.8992 24.0429 40.142 23.7331V23.7331Z" fill="#29E088"/>
<path d="M40.6333 27.7839C40.8762 27.474 41.3241 27.4197 41.6339 27.6626L43.1718 28.868L43.4143 30.8694L40.7545 28.7846C40.4447 28.5417 40.3904 28.0938 40.6333 27.7839V27.7839Z" fill="#29E088"/>
<path d="M43.7283 34.4854C43.3375 34.5327 42.9824 34.2544 42.935 33.8635L41.1859 19.4294C41.1386 19.0385 41.4169 18.6834 41.8078 18.6361C42.1986 18.5888 42.5537 18.8671 42.6012 19.2579L44.3502 33.6922C44.3976 34.0829 44.1192 34.438 43.7283 34.4854V34.4854Z" fill="#0CC166"/>
<path d="M45.2657 28.3306C44.9558 28.0876 44.5078 28.142 44.2651 28.4519L43.0596 29.9898L43.302 31.9912L45.3869 29.3313C45.6298 29.0214 45.5755 28.5735 45.2657 28.3306Z" fill="#0CC166"/>
<path d="M44.7745 24.2798C44.4646 24.0368 44.0166 24.0912 43.7739 24.4011L42.5684 25.939L42.8108 27.9404L44.8958 25.2805C45.1385 24.9706 45.0842 24.5227 44.7745 24.2798V24.2798Z" fill="#0CC166"/>
<path d="M41.0882 31.6385C41.0939 31.6303 41.0994 31.622 41.1051 31.6138C41.5242 30.9993 41.428 30.1575 40.859 29.6786C39.7469 28.7426 38.9894 27.4006 38.8031 25.8638C38.5943 24.1404 39.1727 22.4226 40.318 21.1677C40.8063 20.6326 40.8657 19.8319 40.4237 19.258C40.4153 19.247 40.4069 19.2362 40.3984 19.2252C39.8486 18.5117 38.7832 18.4362 38.1686 19.0948C37.5612 19.7458 37.0526 20.4858 36.6639 21.2899C35.946 22.7729 35.6321 24.4678 35.8447 26.2223C36.1268 28.5503 37.2836 30.5569 38.9457 31.9547C39.6041 32.5086 40.6035 32.3493 41.0882 31.6385V31.6385Z" fill="#C2FFC2"/>
<path d="M19.8521 25.3872C19.591 24.3581 19.0588 23.3837 18.2536 22.5784C15.934 20.2588 12.2126 20.1972 9.81768 22.3918C7.74834 20.5218 4.5534 20.5839 2.55884 22.5784C0.564274 24.5728 0.502269 27.7679 2.37231 29.8372C0.177684 32.2322 0.239301 35.9536 2.55884 38.2731C3.36412 39.0784 4.33865 39.6105 5.3677 39.8717C5.06465 42.0367 5.74501 44.3129 7.40984 45.9777C10.227 48.7948 14.7942 48.7948 17.6113 45.9777L25.958 37.631C28.7751 34.8139 28.7751 30.2465 25.958 27.4295C24.2932 25.7644 22.0171 25.0842 19.8521 25.3872Z" fill="#29E088"/>
<path d="M25.9584 37.631L17.6108 45.9786C14.7937 48.7943 10.2265 48.7943 7.40938 45.9786C5.74404 44.3133 5.06419 42.0364 5.36699 39.8723C4.33832 39.6112 3.36327 39.0783 2.55877 38.2738C1.64444 37.3594 1.08189 36.23 0.868164 35.047C5.08791 33.1798 8.03277 28.9569 8.03277 24.0455C8.03277 23.0748 7.91843 22.1308 7.70032 21.2268C8.46616 21.439 9.19203 21.8279 9.81697 22.392C12.2126 20.1967 15.9337 20.2591 18.2536 22.579C19.0581 23.3835 19.5909 24.3586 19.8522 25.3873C22.0163 25.0845 24.2931 25.7643 25.9585 27.4296C28.774 30.2468 28.7741 34.8139 25.9584 37.631V37.631Z" fill="#0CC166"/>
<path d="M33.1175 22.2625C33.5299 21.2841 33.6932 20.1858 33.5366 19.0577C33.0854 15.8086 30.1544 13.515 26.9204 13.821C26.3978 11.0813 23.8118 9.20387 21.018 9.59174C18.2242 9.97962 16.2476 12.4906 16.4912 15.2692C13.2961 15.8558 11.1009 18.8614 11.552 22.1105C11.7087 23.2385 12.165 24.2507 12.8283 25.0797C11.2808 26.6239 10.4507 28.8497 10.7745 31.1819C11.3225 35.1279 14.9655 37.8827 18.9117 37.3348L30.6036 35.7114C34.5497 35.1634 37.3044 31.5202 36.7566 27.5742C36.4325 25.242 35.0273 23.3266 33.1175 22.2625V22.2625Z" fill="#79FF79"/>
<path d="M30.6028 35.7101L18.9112 37.3339C14.9645 37.8817 11.3221 35.1268 10.7744 31.1816C10.5652 29.6736 10.8382 28.2087 11.4779 26.944C18.0518 24.4712 22.7273 18.1243 22.7273 10.6867C22.7273 10.3305 22.7169 9.97719 22.6947 9.62695C24.7861 10.0099 26.5048 11.6411 26.9204 13.82C30.1546 13.5142 33.0845 15.8075 33.5358 19.0566C33.6931 20.1846 33.5299 21.283 33.1173 22.2626C35.0275 23.3253 36.4317 25.2415 36.7567 27.5733C37.3043 31.52 34.5494 35.1624 30.6028 35.7101Z" fill="#29E088"/>
<path d="M30.6031 35.7097L18.9114 37.3335C18.9026 37.3351 18.8937 37.3365 18.8848 37.3365C25.0728 34.6826 29.4067 28.5332 29.4067 21.3731C29.4067 18.657 28.7833 16.0862 27.6701 13.7959C30.597 13.8775 33.1188 16.0594 33.536 19.0562C33.6932 20.1842 33.53 21.2826 33.1174 22.2622C35.0277 23.3249 36.4318 25.2411 36.7568 27.5729C37.3045 31.5196 34.5497 35.162 30.6031 35.7097V35.7097Z" fill="#0CC166"/>
<path d="M14.1071 42.7454C18.1983 42.7454 21.5149 39.4288 21.5149 35.3375C21.5149 31.2463 18.1983 27.9297 14.1071 27.9297C10.0158 27.9297 6.69922 31.2463 6.69922 35.3375C6.69922 39.4288 10.0158 42.7454 14.1071 42.7454Z" fill="#EF4343"/>
<path d="M12.2165 40.2933C15.2226 40.2933 17.6596 37.8564 17.6596 34.8503C17.6596 31.8442 15.2226 29.4072 12.2165 29.4072C9.21038 29.4072 6.77344 31.8442 6.77344 34.8503C6.77344 37.8564 9.21038 40.2933 12.2165 40.2933Z" fill="#F75E5E"/>
<path d="M10.5438 36.5231C12.2582 36.5231 13.6481 35.1332 13.6481 33.4188C13.6481 31.7043 12.2582 30.3145 10.5438 30.3145C8.8293 30.3145 7.43945 31.7043 7.43945 33.4188C7.43945 35.1332 8.8293 36.5231 10.5438 36.5231Z" fill="#FC9595"/>
<path d="M34.8409 38.1597C29.8271 44.0204 23.9777 43.7598 19.6527 40.0596C15.3276 36.3595 14.1645 30.621 19.1783 24.7603C24.1921 18.8995 33.4842 15.136 37.8092 18.8361C42.1343 22.5362 39.8547 32.2991 34.8409 38.1597V38.1597Z" fill="#FFFDF3"/>
<path d="M34.8406 38.1592C29.8272 44.0194 23.9776 43.7594 19.6525 40.0594C18.7833 39.3158 18.042 38.4899 17.4531 37.5977C23.6428 38.3768 30.0915 36.128 34.4507 31.0324C37.1541 27.8724 38.651 24.0881 38.986 20.2383C41.6089 24.6042 39.3118 32.9328 34.8406 38.1592Z" fill="#FFF7C7"/>
<path d="M30.4463 36.6904C32.9267 33.7902 32.8911 29.6889 30.3667 27.5299C27.8423 25.3708 23.7851 25.9716 21.3047 28.8718C18.8242 31.772 18.8599 35.8733 21.3843 38.0323C23.9087 40.1913 27.9659 39.5905 30.4463 36.6904Z" fill="#FFE059"/>
<path d="M30.4446 36.6974C27.9633 39.5978 23.9065 40.1974 21.3824 38.0379C20.0564 36.9035 19.4173 35.233 19.4698 33.4833C19.6539 33.6774 19.8507 33.865 20.0589 34.0431C23.3084 36.8231 28.1936 36.4427 30.9736 33.1931C31.5132 32.5624 31.9335 31.8695 32.2365 31.1426C32.4568 32.995 31.8604 35.0425 30.4446 36.6974V36.6974Z" fill="#FFC751"/>
<path d="M27.783 30.5557C27.9619 30.7088 28.0991 30.9206 28.1879 31.1724C28.4345 31.8714 29.0257 32.3917 29.7599 32.4937L29.7992 32.4991C31.2481 32.7002 32.433 31.3126 31.966 29.9264C31.6578 29.0115 31.1239 28.1868 30.365 27.5375C27.8409 25.378 23.785 25.9785 21.3046 28.8778C20.9399 29.3041 20.6297 29.7563 20.3739 30.2244C19.6461 31.5563 20.608 33.1809 22.1256 33.1751C22.8367 33.1724 23.5053 32.7945 23.839 32.1665C23.9666 31.9265 24.1268 31.6886 24.3227 31.4598C25.4476 30.145 27.0495 29.9282 27.783 30.5557V30.5557Z" fill="#FFF370"/>
<path d="M27.9374 28.9359C27.9499 28.8979 27.9623 28.8599 27.9748 28.8218C28.4204 27.4657 27.2906 26.1078 25.8767 26.3042C25.2085 26.397 24.5405 26.595 23.8988 26.8942C22.7593 27.4256 22.4266 28.8927 23.2222 29.8664C23.2454 29.8947 23.2684 29.9229 23.2918 29.9513C23.8454 30.6272 24.7869 30.8624 25.5792 30.4941C25.8402 30.3728 26.102 30.2926 26.3537 30.2517C27.0877 30.132 27.706 29.6427 27.9374 28.9359Z" fill="#FFF7C7"/>
<path d="M41.0348 40.1985C45.126 40.1985 48.4427 36.8819 48.4427 32.7907C48.4427 28.6994 45.126 25.3828 41.0348 25.3828C36.9436 25.3828 33.627 28.6994 33.627 32.7907C33.627 36.8819 36.9436 40.1985 41.0348 40.1985Z" fill="#EF4343"/>
<path d="M39.1442 37.7465C42.1504 37.7465 44.5873 35.3095 44.5873 32.3034C44.5873 29.2973 42.1504 26.8604 39.1442 26.8604C36.1381 26.8604 33.7012 29.2973 33.7012 32.3034C33.7012 35.3095 36.1381 37.7465 39.1442 37.7465Z" fill="#F75E5E"/>
<path d="M37.4725 33.9763C39.187 33.9763 40.5768 32.5864 40.5768 30.8719C40.5768 29.1574 39.187 27.7676 37.4725 27.7676C35.758 27.7676 34.3682 29.1574 34.3682 30.8719C34.3682 32.5864 35.758 33.9763 37.4725 33.9763Z" fill="#FC9595"/>
<path d="M48.6849 41.3033C52.0543 41.3033 54.7857 38.5719 54.7857 35.2024C54.7857 31.833 52.0543 29.1016 48.6849 29.1016C45.3154 29.1016 42.584 31.833 42.584 35.2024C42.584 38.5719 45.3154 41.3033 48.6849 41.3033Z" fill="#EF4343"/>
<path d="M48.8245 38.0826C51.3002 38.0826 53.3072 36.0756 53.3072 33.5999C53.3072 31.1242 51.3002 29.1172 48.8245 29.1172C46.3488 29.1172 44.3418 31.1242 44.3418 33.5999C44.3418 36.0756 46.3488 38.0826 48.8245 38.0826Z" fill="#F75E5E"/>
<path d="M49.7617 34.6044C51.1737 34.6044 52.3183 33.4598 52.3183 32.0478C52.3183 30.6358 51.1737 29.4912 49.7617 29.4912C48.3497 29.4912 47.2051 30.6358 47.2051 32.0478C47.2051 33.4598 48.3497 34.6044 49.7617 34.6044Z" fill="#FC9595"/>
<path d="M37.0404 66.0004H20.285C19.4653 66.0004 18.8008 65.3359 18.8008 64.5161V60.584H38.5247V64.5161C38.5246 65.3359 37.8601 66.0004 37.0404 66.0004Z" fill="#E8E4D8"/>
<path d="M38.5246 60.584H18.8008V63.7757H33.2271C34.5027 63.7757 34.8201 65.5681 33.6149 65.9866C33.6018 65.9911 33.5886 65.9957 33.5755 66.0001H37.0399C37.8606 66.0001 38.5241 65.3352 38.5241 64.5159L38.5246 60.584Z" fill="#D8D4C9"/>
<path d="M0.264426 38.6214C1.49806 48.6228 7.89194 57.0249 16.7 61.0843C17.5149 61.46 18.4044 61.6465 19.3017 61.6465H38.0244C38.9217 61.6465 39.8112 61.4598 40.6261 61.0843C49.4343 57.0249 55.8281 48.6228 57.0617 38.6214C57.1713 37.7331 56.4838 36.9473 55.5888 36.9473H1.73731C0.842313 36.9474 0.154856 37.7331 0.264426 38.6214V38.6214Z" fill="#F1EEE0"/>
<path d="M57.0611 38.6209C55.8276 48.6234 49.4334 57.0245 40.6256 61.084C39.8108 61.4595 38.9218 61.6465 38.0237 61.6465H33.5605C42.542 57.0616 48.6913 47.7226 48.6913 36.9482H55.5887C56.4837 36.9481 57.1709 37.7333 57.0611 38.6209V38.6209Z" fill="#E8E4D8"/>
<path d="M25.8841 41.6356H4.78947C3.49474 41.6356 2.44531 40.586 2.44531 39.2914C2.44531 37.9967 3.49487 36.9473 4.78947 36.9473H25.884C27.1787 36.9473 28.2281 37.9968 28.2281 39.2914C28.2282 40.586 27.1787 41.6356 25.8841 41.6356Z" fill="#F9F8F2"/>
<path d="M16.3314 36.9473H11.6763C10.3816 36.9473 9.33203 37.9968 9.33203 39.2916C9.33203 40.5863 10.3816 41.6358 11.6763 41.6358H16.3314C17.6261 41.6358 18.6757 40.5863 18.6757 39.2916C18.6757 37.9968 17.6261 36.9473 16.3314 36.9473Z" fill="white"/>
<path d="M13.8658 21.4425C14.5336 21.3758 15.1319 20.9646 15.3902 20.3449C15.6908 19.6239 16.3377 19.0692 17.1616 18.918L17.1627 18.9179C19.0451 18.5722 20.3556 16.8513 20.1881 14.9446C20.1475 14.4828 20.3137 14.0491 20.6118 13.7364C20.9997 13.3296 21.1938 12.7764 21.1238 12.2187C21.1223 12.2063 21.1207 12.194 21.1192 12.1817C20.9292 10.6683 19.0736 10.0168 18.0002 11.1003C16.9428 12.1676 16.3511 13.6739 16.4907 15.2683C14.401 15.6519 12.74 17.0711 11.9676 18.9165C11.4321 20.1958 12.4488 21.5843 13.8288 21.4463L13.8658 21.4425Z" fill="#C2FFC2"/>
<path d="M3.97921 28.0605C4.48723 27.6875 4.79183 27.0801 4.73215 26.4525C4.68961 26.0052 4.84056 25.544 5.18203 25.2016C5.26131 25.1227 5.34303 25.0571 5.42515 25.0026C5.94309 24.6592 6.2321 24.0584 6.22823 23.4369C6.22811 23.4239 6.22811 23.4107 6.22798 23.3977C6.21908 21.9862 4.66202 21.0942 3.46951 21.8494C3.14647 22.054 2.84084 22.2971 2.5593 22.5789C1.41359 23.7237 0.905825 25.2649 1.03538 26.7617C1.15887 28.1877 2.79559 28.9297 3.9493 28.0826L3.97921 28.0605Z" fill="#79FF79"/>
</svg>
