<svg width="66" height="66" viewBox="0 0 66 66" fill="none" xmlns="http://www.w3.org/2000/svg">
<path d="M3.09375 54.6562H62.9062V58.7812H3.09375V54.6562Z" fill="#8C5237"/>
<path d="M60.8438 54.6562H36.0938V7.21875H48.4688L49.6018 11.5642C49.1872 11.773 48.8551 12.1156 48.6594 12.5366C48.4636 12.9575 48.4156 13.4322 48.5231 13.8838C48.6306 14.3355 48.8874 14.7376 49.2518 15.0253C49.6162 15.3129 50.067 15.4691 50.5312 15.4688C50.5609 15.4688 50.5905 15.4688 50.6202 15.4662L52.791 23.7871C52.0833 23.9035 51.4077 24.1662 50.8074 24.5584C50.207 24.9507 49.6951 25.4639 49.3043 26.0652C48.9135 26.6666 48.6524 27.3428 48.5378 28.0507C48.4231 28.7587 48.4574 29.4827 48.6385 30.1767C48.8195 30.8706 49.1433 31.5191 49.5892 32.0808C50.0351 32.6425 50.5933 33.105 51.228 33.4388C51.8628 33.7725 52.5602 33.9702 53.2757 34.0192C53.9911 34.0682 54.709 33.9673 55.3833 33.7232L60.8438 54.6562Z" fill="#FFB632"/>
<path d="M54.417 33.9691C54.1552 34.0106 53.8905 34.0313 53.6255 34.0309C52.4163 34.031 51.2456 33.6062 50.3179 32.8307C49.3902 32.0552 48.7646 30.9783 48.5503 29.7882C48.3361 28.5982 48.5469 27.3708 49.1459 26.3204C49.7449 25.27 50.694 24.4636 51.8272 24.042L54.417 33.9691Z" fill="#E09F2C"/>
<path d="M49.5 50.5312C51.2086 50.5312 52.5938 49.1461 52.5938 47.4375C52.5938 45.7289 51.2086 44.3438 49.5 44.3438C47.7914 44.3438 46.4062 45.7289 46.4062 47.4375C46.4062 49.1461 47.7914 50.5312 49.5 50.5312Z" fill="#E09F2C"/>
<path d="M50.9375 54.4375H20L23.813 39.8221C24.469 39.9953 25.1526 40.0373 25.8249 39.9457C26.4971 39.8542 27.1446 39.6309 27.7303 39.2886C28.3161 38.9464 28.8286 38.4919 29.2383 37.9513C29.6481 37.4106 29.9472 36.7944 30.1184 36.138C30.2896 35.4815 30.3296 34.7977 30.2361 34.1258C30.1426 33.4539 29.9174 32.807 29.5734 32.2222C29.2294 31.6375 28.7734 31.1264 28.2316 30.7182C27.6897 30.31 27.0726 30.0128 26.4157 29.8435L32.375 7H38.5625L40.7758 15.4846C40.2643 15.273 39.7053 15.2025 39.1573 15.2805C38.6092 15.3584 38.0921 15.582 37.6599 15.928C37.2277 16.2739 36.8963 16.7294 36.7001 17.2471C36.5039 17.7647 36.4503 18.3255 36.5447 18.871C36.6391 19.4165 36.8781 19.9266 37.2369 20.3482C37.5956 20.7698 38.0609 21.0875 38.5842 21.268C39.1075 21.4485 39.6697 21.4853 40.2121 21.3746C40.7545 21.2638 41.2572 21.0095 41.6679 20.6383C41.6691 20.637 41.6717 20.6357 41.6743 20.6331C41.8 20.5188 41.916 20.3942 42.0211 20.2606L50.9375 54.4375Z" fill="#FFE76C"/>
<path d="M29.9066 35.0626C29.9066 36.4301 29.3633 37.7417 28.3963 38.7086C27.4293 39.6756 26.1178 40.2189 24.7503 40.2189C24.6304 40.2189 24.5118 40.215 24.3945 40.206L26.9533 30.4014C27.8368 30.8184 28.5836 31.4781 29.1065 32.3034C29.6294 33.1287 29.9069 34.0856 29.9066 35.0626Z" fill="#FFB632"/>
<path d="M35.0625 50.5312C36.7711 50.5312 38.1562 49.1461 38.1562 47.4375C38.1562 45.7289 36.7711 44.3438 35.0625 44.3438C33.3539 44.3438 31.9688 45.7289 31.9688 47.4375C31.9688 49.1461 33.3539 50.5312 35.0625 50.5312Z" fill="#FFB632"/>
<path d="M42.2812 38.1562C43.4203 38.1562 44.3438 37.2328 44.3438 36.0938C44.3438 34.9547 43.4203 34.0312 42.2812 34.0312C41.1422 34.0312 40.2188 34.9547 40.2188 36.0938C40.2188 37.2328 41.1422 38.1562 42.2812 38.1562Z" fill="#FFB632"/>
<path d="M27.8438 54.6562H11.3438L16.5 29.9062H22.6875L26.2621 47.0662L26.6965 49.1507L27.8438 54.6562Z" fill="#FFB632"/>
<path d="M21.6562 54.6562H5.15625L6.44789 48.4571C7.11166 48.4009 7.73953 48.1319 8.23814 47.6901C8.73675 47.2484 9.07946 46.6575 9.21531 46.0054C9.35115 45.3532 9.27288 44.6746 8.99212 44.0705C8.71136 43.4665 8.24312 42.9691 7.65703 42.6525L10.3125 29.9062H16.5L21.6562 54.6562Z" fill="#FFE76C"/>
<path d="M16.5 54.6562C18.2086 54.6562 19.5938 53.2711 19.5938 51.5625C19.5938 49.8539 18.2086 48.4688 16.5 48.4688C14.7914 48.4688 13.4062 49.8539 13.4062 51.5625C13.4062 53.2711 14.7914 54.6562 16.5 54.6562Z" fill="#FFB632"/>
<path d="M26.6966 49.1506C26.5476 49.5759 26.2633 49.9408 25.8873 50.1893C25.5114 50.4379 25.0643 50.5564 24.6146 50.5268C24.1648 50.4972 23.7372 50.3211 23.397 50.0254C23.0568 49.7298 22.8228 49.3308 22.7309 48.8896C22.6389 48.4483 22.694 47.9891 22.8878 47.5822C23.0815 47.1752 23.4032 46.8429 23.8037 46.6362C24.2042 46.4294 24.6614 46.3594 25.1053 46.4371C25.5493 46.5147 25.9556 46.7357 26.2621 47.0661L26.6966 49.1506Z" fill="#E09F2C"/>
<path d="M15.4688 38.1562C16.6078 38.1562 17.5312 37.2328 17.5312 36.0938C17.5312 34.9547 16.6078 34.0312 15.4688 34.0312C14.3297 34.0312 13.4062 34.9547 13.4062 36.0938C13.4062 37.2328 14.3297 38.1562 15.4688 38.1562Z" fill="#FFB632"/>
</svg>
