<svg id="Capa_1" enable-background="new 0 0 512 512" height="512" viewBox="0 0 512 512" width="512" xmlns="http://www.w3.org/2000/svg"><g><path d="m331 362h-75-75c-49.629 0-90 40.371-90 90 0 19.644 6.226 38.32 18.003 54.009 2.842 3.779 7.28 5.991 11.997 5.991h135 135c4.717 0 9.155-2.212 11.997-5.991 11.777-15.689 18.003-34.365 18.003-54.009 0-49.629-40.371-90-90-90z" fill="#ffb3b3"/><path d="m402.997 506.009c11.777-15.689 18.003-34.365 18.003-54.009 0-49.629-40.371-90-90-90h-75v150h135c4.717 0 9.155-2.212 11.997-5.991z" fill="#f99"/><path d="m346 422c-8.276 0-15-6.724-15-15v-163.51h-75-75v163.51c0 8.276-6.724 15-15 15-8.291 0-15 6.709-15 15s6.709 15 15 15h90 90c8.291 0 15-6.709 15-15s-6.709-15-15-15z" fill="#fcc"/><path d="m361 437c0-8.291-6.709-15-15-15-8.276 0-15-6.724-15-15v-163.51h-75v208.51h90c8.291 0 15-6.709 15-15z" fill="#ffb3b3"/><path d="m343.876 173.76c-22.764-39.419-59.238-60.483-87.876-51.87-28.608-8.613-65.112 12.451-87.876 51.87-11.353 19.673-17.432 42.074-17.109 61.278.366 21.665 9.141 39.038 24.067 47.666 26.948 15.533 59.912-1.879 80.918-25.547.009-.011.02-.018.029-.029 25.005 28.096 57.48 39.111 80.889 25.576 14.927-8.628 23.701-26.001 24.067-47.666.323-19.204-5.756-41.605-17.109-61.278z" fill="#ffb3b3"/><path d="m336.918 282.704c14.927-8.628 23.701-26.001 24.067-47.666.322-19.204-5.757-41.605-17.109-61.278-22.764-39.419-59.238-60.483-87.876-51.87v135.268c.009-.011.02-.018.029-.029 25.005 28.095 57.481 39.11 80.889 25.575z" fill="#f99"/><g><path d="m155.395 115.605-30-30c-5.859-5.859-5.859-15.352 0-21.211s15.352-5.859 21.211 0l30 30c5.859 5.859 5.859 15.352 0 21.211-5.86 5.86-15.352 5.86-21.211 0z" fill="#edf5ff"/></g><g><path d="m335.395 115.605c-5.859-5.859-5.859-15.352 0-21.211l30-30c5.859-5.859 15.352-5.859 21.211 0s5.859 15.352 0 21.211l-30 30c-5.86 5.86-15.352 5.86-21.211 0z" fill="#d5e8fe"/></g><path d="m256 0c-24.814 0-45 20.186-45 45 0 7.866 2.065 15.63 6.006 22.485l9.917 17.168c9.484 16.417 14.077 35.186 14.077 51.021v29.326c0 8.291 6.709 15 15 15s15-6.709 15-15v-29.736c.322-17.725 5.186-35.215 14.077-50.61l9.888-17.139c4.014-6.885 6.035-14.458 6.035-22.515 0-24.814-20.186-45-45-45z" fill="#edf5ff"/><path d="m271 165v-29.736c.322-17.725 5.186-35.215 14.077-50.61l9.888-17.139c4.014-6.885 6.035-14.458 6.035-22.515 0-24.814-20.186-45-45-45v180c8.291 0 15-6.709 15-15z" fill="#d5e8fe"/></g></svg>