<svg width="65" height="65" viewBox="0 0 65 65" fill="none" xmlns="http://www.w3.org/2000/svg">
<g clip-path="url(#clip0)">
<path d="M59.0576 36.1885C59.0576 44.0097 53.9716 54.8185 47.8222 60.7232C45.0949 63.3454 42.1575 65 39.3611 65C37.5937 65 35.8308 64.7161 34.3142 64.2582C32.2362 63.6293 30.0264 63.6293 27.9484 64.2582C26.4319 64.7161 24.6692 65 22.9016 65C19.972 65 16.8856 63.1823 14.0484 60.3389C8.07627 54.3589 3.20508 43.8418 3.20508 36.1884C3.20508 24.8965 9.95988 18.0743 16.3115 16.4276C19.354 15.6387 22.8844 16.1469 25.7355 16.8887C28.684 17.6572 31.7484 17.7858 34.7344 17.2745C35.3367 17.1711 35.9341 17.0425 36.527 16.8887C39.3782 16.1469 42.9069 15.6387 45.951 16.4276C52.303 18.0745 59.0576 24.8967 59.0576 36.1885Z" fill="#F94848"/>
<path d="M47.8218 60.7226C40.2752 62.0561 34.4625 61.6867 30.0827 60.6261C22.9308 58.8943 17.6105 52.8622 16.7238 45.5573C14.503 27.2621 26.4569 21.9356 26.4569 21.9356C29.9606 23.5275 33.9002 22.6774 33.9002 22.6774C31.3861 20.165 34.7345 17.2745 34.7345 17.2745C31.7485 17.7858 28.6839 17.6572 25.7356 16.8887C22.8843 16.1469 19.3542 15.6387 16.3116 16.4276C9.95975 18.0745 3.20508 24.8967 3.20508 36.1885C3.20508 47.4788 13.8053 65 22.9015 65C24.6689 65 26.4318 64.7161 27.9484 64.2582C30.0264 63.6293 32.2361 63.6293 34.3142 64.2582C35.8308 64.7161 37.5935 65 39.3611 65C42.1574 65 45.0948 63.3454 47.8221 60.7232C47.8218 60.7228 47.8221 60.7232 47.8218 60.7226Z" fill="#E23D3D"/>
<path d="M61.7944 0.698908C61.7944 0.698908 60.226 11.6316 51.9658 14.8138C44.0693 17.8564 37.0307 9.63057 34.1435 10.2783C34.0134 10.3049 33.8925 10.352 33.7797 10.4195C33.775 10.421 33.7734 10.4226 33.7734 10.4226L33.775 10.4164C33.8722 10.1216 37.0387 0.689767 45.1704 0.0717595C53.4305 -0.55577 57.9254 3.20826 61.7944 0.698908Z" fill="#C7F492"/>
<path d="M61.7945 0.698908C61.7945 0.698908 56.7759 6.81538 49.7185 6.81538C43.5126 6.81538 35.8922 9.60391 34.1435 10.2783C33.9334 10.3583 33.8095 10.4084 33.7797 10.4195C33.775 10.421 33.7734 10.4226 33.7734 10.4226L33.775 10.4164C33.8722 10.1216 37.0387 0.689767 45.1704 0.0717595C53.4306 -0.55577 57.9255 3.20826 61.7945 0.698908Z" fill="#A3E261"/>
<path d="M53.6388 31.0539C53.3305 27.9516 51.4532 25.5984 49.4459 25.7979C47.4385 25.9975 46.0611 28.6741 46.3695 31.7764C46.6778 34.8787 48.555 37.2318 50.5624 37.0323C52.5698 36.8328 53.9471 34.1562 53.6388 31.0539Z" fill="#FC8181"/>
<path d="M36.9801 21.1299C36.9801 22.4144 34.9632 23.484 32.2861 23.727C31.9129 23.7615 31.5271 23.7788 31.1319 23.7788C30.7194 23.7788 30.318 23.76 29.9305 23.7239C27.2784 23.4714 25.2852 22.4065 25.2852 21.1299H36.9801Z" fill="#E23D3D"/>
<path d="M35.5936 10.2843L31.3043 16.799C31.6257 18.1196 31.9034 19.575 32.0838 21.1292C32.1825 21.9682 32.2531 22.8355 32.2861 23.7262C31.9129 23.7608 31.5271 23.778 31.1319 23.778C30.7194 23.778 30.318 23.7593 29.9305 23.7232C29.896 22.8324 29.8192 21.9667 29.7141 21.1292C28.9456 15.0394 26.5962 10.554 26.568 10.5038C26.2637 9.92987 26.4818 9.21779 27.0558 8.91361C27.6297 8.60778 28.3418 8.82575 28.646 9.39984C28.7151 9.53161 29.5791 11.183 30.4511 13.8178L33.6302 8.99054C33.9861 8.44794 34.717 8.2989 35.2581 8.65653C35.8007 9.0125 35.9513 9.74172 35.5936 10.2843Z" fill="#B25719"/>
</g>
<defs>
<clipPath id="clip0">
<rect width="65" height="65" fill="white"/>
</clipPath>
</defs>
</svg>
